<svg xmlns="http://www.w3.org/2000/svg" viewBox="0 0 1280 720" role="img" aria-labelledby="title desc">
  <title id="title">Agent Benchmarks Placeholder</title>
  <desc id="desc">Abstract geometric cover for Agent Benchmarks.</desc>
  <defs>
    <linearGradient id="bg" x1="0" y1="0" x2="1" y2="1">
      <stop offset="0%" stop-color="#2b2749"/>
      <stop offset="100%" stop-color="#15152c"/>
    </linearGradient>
    <radialGradient id="halo" cx="12%" cy="8%" r="86%">
      <stop offset="0%" stop-color="#ebe5ff" stop-opacity="0.42"/>
      <stop offset="100%" stop-color="#ffffff" stop-opacity="0"/>
    </radialGradient>
  </defs>
  <rect width="1280" height="720" fill="url(#bg)"/>
  <rect width="1280" height="720" fill="url(#halo)"/>
  <g fill="none" stroke="#e5ddff" stroke-opacity="0.2" stroke-width="1.5">
    <path d="M 0 590 C 250 540, 490 666, 740 596 C 972 538, 1114 594, 1280 562"/>
    <path d="M 0 660 C 250 620, 512 704, 770 648 C 1012 606, 1142 650, 1280 636"/>
    <path d="M 190 214 C 300 138, 442 160, 506 254 C 570 346, 540 472, 420 538 C 300 604, 160 556, 124 446 C 88 336, 108 272, 190 214 Z"/>
    <path d="M 808 192 H 1098 V 484 H 808 Z"/>
  </g>
  <g fill="#f2ecff" fill-opacity="0.16">
    <path d="M 848 238 H 1058 V 438 H 848 Z"/>
  </g>
</svg>
