<svg xmlns="http://www.w3.org/2000/svg" viewBox="0 0 1280 720" role="img" aria-labelledby="title desc">
  <title id="title">Younger Benchmark Placeholder</title>
  <desc id="desc">Abstract geometric cover for Younger Benchmark.</desc>
  <defs>
    <linearGradient id="bg" x1="0" y1="0" x2="1" y2="1">
      <stop offset="0%" stop-color="#183a3e"/>
      <stop offset="100%" stop-color="#0c1f23"/>
    </linearGradient>
    <radialGradient id="halo" cx="12%" cy="8%" r="86%">
      <stop offset="0%" stop-color="#d8fff8" stop-opacity="0.45"/>
      <stop offset="100%" stop-color="#ffffff" stop-opacity="0"/>
    </radialGradient>
  </defs>
  <rect width="1280" height="720" fill="url(#bg)"/>
  <rect width="1280" height="720" fill="url(#halo)"/>
  <g fill="none" stroke="#d5f7ef" stroke-opacity="0.2" stroke-width="1.5">
    <path d="M 0 582 C 220 542, 460 658, 712 594 C 948 536, 1112 592, 1280 560"/>
    <path d="M 0 656 C 248 616, 514 700, 772 646 C 1008 602, 1136 648, 1280 634"/>
    <path d="M 924 172 L 1098 286 L 992 430 L 820 316 Z"/>
    <path d="M 882 236 L 1034 334 L 940 462 L 786 366 Z"/>
  </g>
  <g fill="#dffcf5" fill-opacity="0.18">
    <circle cx="280" cy="316" r="130"/>
    <circle cx="388" cy="336" r="84"/>
  </g>
</svg>
